<svg xmlns="http://www.w3.org/2000/svg" viewBox="0 0 1200 900" width="1200" height="900" role="img" aria-label="Placeholder wireframe: shop and currency">
  <g fill="none" stroke="#8a8a8a" stroke-width="2">
    <!-- header with currency pills -->
    <rect x="80" y="80" width="180" height="22" rx="6" opacity=".3" fill="#8a8a8a" stroke="none"/>
    <g opacity=".45">
      <rect x="820" y="70" width="140" height="40" rx="20"/>
      <rect x="980" y="70" width="140" height="40" rx="20"/>
    </g>
    <circle cx="846" cy="90" r="11" opacity=".4"/>
    <circle cx="1006" cy="90" r="11" opacity=".4"/>
    <!-- category tabs -->
    <g opacity=".35">
      <rect x="80" y="146" width="110" height="36" rx="18"/>
      <rect x="202" y="146" width="110" height="36" rx="18"/>
      <rect x="324" y="146" width="110" height="36" rx="18"/>
    </g>
    <rect x="80" y="146" width="110" height="36" rx="18" opacity=".2" fill="#8a8a8a" stroke="none"/>
    <!-- product grid 4 x 2 -->
    <g opacity=".38">
      <rect x="80" y="218" width="240" height="280" rx="10"/>
      <rect x="340" y="218" width="240" height="280" rx="10"/>
      <rect x="600" y="218" width="240" height="280" rx="10"/>
      <rect x="860" y="218" width="240" height="280" rx="10"/>
      <rect x="80" y="522" width="240" height="280" rx="10"/>
      <rect x="340" y="522" width="240" height="280" rx="10"/>
      <rect x="600" y="522" width="240" height="280" rx="10"/>
      <rect x="860" y="522" width="240" height="280" rx="10"/>
    </g>
    <!-- item art wells + price rows -->
    <g opacity=".2" fill="#8a8a8a" stroke="none">
      <rect x="106" y="244" width="188" height="150" rx="8"/>
      <rect x="366" y="244" width="188" height="150" rx="8"/>
      <rect x="626" y="244" width="188" height="150" rx="8"/>
      <rect x="886" y="244" width="188" height="150" rx="8"/>
      <rect x="106" y="548" width="188" height="150" rx="8"/>
      <rect x="366" y="548" width="188" height="150" rx="8"/>
      <rect x="626" y="548" width="188" height="150" rx="8"/>
      <rect x="886" y="548" width="188" height="150" rx="8"/>
    </g>
    <g opacity=".22" fill="#8a8a8a" stroke="none">
      <rect x="106" y="412" width="120" height="12" rx="4"/>
      <rect x="366" y="412" width="96" height="12" rx="4"/>
      <rect x="626" y="412" width="132" height="12" rx="4"/>
      <rect x="886" y="412" width="104" height="12" rx="4"/>
      <rect x="106" y="716" width="120" height="12" rx="4"/>
      <rect x="366" y="716" width="96" height="12" rx="4"/>
      <rect x="626" y="716" width="132" height="12" rx="4"/>
      <rect x="886" y="716" width="104" height="12" rx="4"/>
    </g>
    <g opacity=".45">
      <rect x="106" y="444" width="100" height="30" rx="15"/>
      <rect x="366" y="444" width="100" height="30" rx="15"/>
      <rect x="626" y="444" width="100" height="30" rx="15"/>
      <rect x="886" y="444" width="100" height="30" rx="15"/>
      <rect x="106" y="748" width="100" height="30" rx="15"/>
      <rect x="366" y="748" width="100" height="30" rx="15"/>
      <rect x="626" y="748" width="100" height="30" rx="15"/>
      <rect x="886" y="748" width="100" height="30" rx="15"/>
    </g>
  </g>
  <text x="600" y="884" text-anchor="middle" font-family="ui-monospace, monospace" font-size="17" letter-spacing="3" fill="#8a8a8a" opacity=".5">REPLACE — images/work-04.svg</text>
</svg>
